<svg xmlns="http://www.w3.org/2000/svg" xmlns:xlink="http://www.w3.org/1999/xlink" viewBox="0 0 369.71 134.49"><defs><style>.cls-1{fill:url(#linear-gradient);}.cls-2{fill:url(#linear-gradient-2);}.cls-3{fill:url(#linear-gradient-3);}.cls-4{fill:url(#linear-gradient-4);}.cls-5{fill:url(#linear-gradient-5);}.cls-6{fill:url(#linear-gradient-6);}.cls-7{fill:url(#linear-gradient-7);}.cls-8{fill:url(#linear-gradient-8);}.cls-9{fill:url(#linear-gradient-9);}.cls-10{fill:url(#linear-gradient-10);}.cls-11{fill:url(#linear-gradient-11);}.cls-12{fill:url(#linear-gradient-12);}.cls-13{fill:url(#linear-gradient-13);}.cls-14{fill:url(#linear-gradient-14);}.cls-15{fill:url(#linear-gradient-15);}.cls-16{fill:url(#linear-gradient-16);}.cls-17{fill:url(#radial-gradient);}.cls-18{stroke:#000;stroke-miterlimit:10;}.cls-19{fill:#fff;}</style><linearGradient id="linear-gradient" x1="322.76" y1="228.11" x2="583.76" y2="228.11" gradientUnits="userSpaceOnUse"><stop offset="0" stop-color="#2f7da8"/><stop offset="0.47" stop-color="#2e78a4"/><stop offset="0.74" stop-color="#213167"/></linearGradient><linearGradient id="linear-gradient-2" x1="579.31" y1="236.85" x2="594.23" y2="236.85" gradientTransform="translate(4.38 484.28) rotate(-45)" xlink:href="#linear-gradient"/><linearGradient id="linear-gradient-3" x1="595.56" y1="253.1" x2="610.48" y2="253.1" gradientTransform="translate(-2.35 500.53) rotate(-45)" xlink:href="#linear-gradient"/><linearGradient id="linear-gradient-4" x1="578.31" y1="254.1" x2="593.22" y2="254.1" gradientTransform="translate(-8.11 488.62) rotate(-45)" xlink:href="#linear-gradient"/><linearGradient id="linear-gradient-5" x1="561.17" y1="258.55" x2="576.08" y2="258.55" gradientTransform="translate(-16.28 477.81) rotate(-45)" xlink:href="#linear-gradient"/><linearGradient id="linear-gradient-6" x1="561.17" y1="269.65" x2="576.08" y2="269.65" gradientTransform="translate(-24.12 481.06) rotate(-45)" xlink:href="#linear-gradient"/><linearGradient id="linear-gradient-7" x1="548.82" y1="267.64" x2="559.13" y2="267.64" gradientTransform="translate(-26.99 470.11) rotate(-45)" xlink:href="#linear-gradient"/><linearGradient id="linear-gradient-8" x1="578.61" y1="272.35" x2="588.92" y2="272.35" gradientTransform="translate(-21.6 492.55) rotate(-45)" xlink:href="#linear-gradient"/><linearGradient id="linear-gradient-9" x1="267.48" y1="290.4" x2="528.48" y2="290.4" gradientUnits="userSpaceOnUse"><stop offset="0" stop-color="#050608"/><stop offset="0.59" stop-color="#434343"/><stop offset="1" stop-color="#464646"/></linearGradient><linearGradient id="linear-gradient-10" x1="257.01" y1="281.67" x2="271.93" y2="281.67" gradientTransform="translate(650.65 293.82) rotate(135)" xlink:href="#linear-gradient-9"/><linearGradient id="linear-gradient-11" x1="240.76" y1="265.42" x2="255.68" y2="265.42" gradientTransform="translate(611.42 277.57) rotate(135)" xlink:href="#linear-gradient-9"/><linearGradient id="linear-gradient-12" x1="258.02" y1="264.42" x2="272.93" y2="264.42" gradientTransform="translate(640.17 263.67) rotate(135)" xlink:href="#linear-gradient-9"/><linearGradient id="linear-gradient-13" x1="275.16" y1="259.96" x2="290.07" y2="259.96" gradientTransform="translate(666.28 243.94) rotate(135)" xlink:href="#linear-gradient-9"/><linearGradient id="linear-gradient-14" x1="275.16" y1="248.86" x2="290.07" y2="248.86" gradientTransform="translate(658.43 225) rotate(135)" xlink:href="#linear-gradient-9"/><linearGradient id="linear-gradient-15" x1="292.11" y1="250.87" x2="302.42" y2="250.87" gradientTransform="translate(684.86 218.07) rotate(135)" xlink:href="#linear-gradient-9"/><linearGradient id="linear-gradient-16" x1="262.32" y1="246.16" x2="272.63" y2="246.16" gradientTransform="translate(630.67 231.09) rotate(135)" xlink:href="#linear-gradient-9"/><radialGradient id="radial-gradient" cx="184.61" cy="67.28" r="36.33" gradientUnits="userSpaceOnUse"><stop offset="0" stop-color="#2f7da8"/><stop offset="0.66" stop-color="#2e78a4"/><stop offset="1" stop-color="#213167"/></radialGradient></defs><title>logo</title><g id="Layer_3" data-name="Layer 3"><path class="cls-1" d="M583.76,227.06l-37.44,37.16c-12.82-13.53-27.57-25.46-44.07-34.21-29.2-15.48-63.67-18.9-95.69-11.38-31.33,7.35-60.1,23.87-83.8,45.44a12.65,12.65,0,0,1,2.66-2.75,17.94,17.94,0,0,1-2.66,2.75c13.2-16.52,28.07-32,45.58-44,30.6-20.94,68.42-29.88,105.23-27.78,38.89,2.22,76.55,15.51,110.19,34.75l-.56.35" transform="translate(-240.76 -192.01)"/><rect class="cls-2" x="581.02" y="231.09" width="11.5" height="11.5" rx="1.63" ry="1.63" transform="translate(98.57 -537.55) rotate(45)"/><rect class="cls-3" x="597.27" y="247.34" width="11.5" height="11.5" rx="1.63" ry="1.63" transform="translate(114.82 -544.28) rotate(45)"/><rect class="cls-4" x="580.01" y="248.34" width="11.5" height="11.5" rx="1.63" ry="1.63" transform="translate(110.48 -531.79) rotate(45)"/><rect class="cls-5" x="562.87" y="252.8" width="11.5" height="11.5" rx="1.63" ry="1.63" transform="translate(108.61 -518.36) rotate(45)"/><rect class="cls-6" x="562.87" y="263.9" width="11.5" height="11.5" rx="1.63" ry="1.63" transform="translate(116.45 -515.11) rotate(45)"/><rect class="cls-7" x="549.85" y="263.52" width="8.24" height="8.24" rx="1.63" ry="1.63" transform="translate(110.74 -505.34) rotate(45)"/><rect class="cls-8" x="579.64" y="268.23" width="8.24" height="8.24" rx="1.63" ry="1.63" transform="translate(122.8 -525.03) rotate(45)"/><path class="cls-9" d="M267.48,291.45l37.44-37.16c12.82,13.53,27.57,25.46,44.07,34.21,29.2,15.48,63.67,18.9,95.69,11.38,31.33-7.35,60.1-23.87,83.8-45.44a12.65,12.65,0,0,1-2.66,2.75,17.94,17.94,0,0,1,2.66-2.75c-13.2,16.52-28.07,32-45.58,44-30.6,20.94-68.42,29.88-105.23,27.78-38.89-2.22-76.55-15.51-110.19-34.75l.56-.35" transform="translate(-240.76 -192.01)"/><rect class="cls-10" x="258.72" y="275.91" width="11.5" height="11.5" rx="1.63" ry="1.63" transform="translate(11.55 475.83) rotate(-135)"/><rect class="cls-11" x="242.47" y="259.66" width="11.5" height="11.5" rx="1.63" ry="1.63" transform="translate(-4.7 436.6) rotate(-135)"/><rect class="cls-12" x="259.72" y="258.66" width="11.5" height="11.5" rx="1.63" ry="1.63" transform="translate(25.46 447.09) rotate(-135)"/><rect class="cls-13" x="276.86" y="254.21" width="11.5" height="11.5" rx="1.63" ry="1.63" transform="translate(57.87 451.61) rotate(-135)"/><rect class="cls-14" x="276.86" y="243.11" width="11.5" height="11.5" rx="1.63" ry="1.63" transform="translate(65.72 432.67) rotate(-135)"/><rect class="cls-15" x="293.14" y="246.75" width="8.24" height="8.24" rx="1.63" ry="1.63" transform="translate(89.31 446.45) rotate(-135)"/><rect class="cls-16" x="263.35" y="242.04" width="8.24" height="8.24" rx="1.63" ry="1.63" transform="translate(41.78 417.35) rotate(-135)"/><ellipse class="cls-17" cx="184.61" cy="67.28" rx="36" ry="36.67"/><ellipse class="cls-18" cx="184.61" cy="67.28" rx="15.5" ry="15.79"/><ellipse class="cls-19" cx="197.24" cy="56.49" rx="7" ry="5.83"/><ellipse class="cls-19" cx="201.57" cy="69.15" rx="2.25" ry="1.87"/></g></svg>